<?xml version="1.0" encoding="UTF-8"?>
<svg xmlns="http://www.w3.org/2000/svg" width="112" height="52" viewBox="0 0 112 52"><rect id="header-topleft" x="8" y="8" width="6" height="6" fill="#1f2d29" fill-opacity="0.68" stroke="#505a56" stroke-width="1" stroke-opacity="1"/><rect id="header-top" x="14" y="8" width="24" height="6" fill="#1f2d29" fill-opacity="0.68" stroke="#505a56" stroke-width="1" stroke-opacity="1"/><rect id="header-topright" x="38" y="8" width="6" height="6" fill="#1f2d29" fill-opacity="0.68" stroke="#505a56" stroke-width="1" stroke-opacity="1"/><rect id="header-left" x="8" y="14" width="6" height="24" fill="#1f2d29" fill-opacity="0.68" stroke="#505a56" stroke-width="1" stroke-opacity="1"/><rect id="header-center" x="14" y="14" width="24" height="24" fill="#1f2d29" fill-opacity="0.68"/><rect id="header-right" x="38" y="14" width="6" height="24" fill="#1f2d29" fill-opacity="0.68" stroke="#505a56" stroke-width="1" stroke-opacity="1"/><rect id="header-bottomleft" x="8" y="38" width="6" height="6" fill="#1f2d29" fill-opacity="0.68" stroke="#505a56" stroke-width="1" stroke-opacity="1"/><rect id="header-bottom" x="14" y="38" width="24" height="6" fill="#1f2d29" fill-opacity="0.68" stroke="#505a56" stroke-width="1" stroke-opacity="1"/><rect id="header-bottomright" x="38" y="38" width="6" height="6" fill="#1f2d29" fill-opacity="0.68" stroke="#505a56" stroke-width="1" stroke-opacity="1"/><rect id="footer-topleft" x="56" y="8" width="6" height="6" fill="#1f2d29" fill-opacity="0.68" stroke="#505a56" stroke-width="1" stroke-opacity="1"/><rect id="footer-top" x="62" y="8" width="24" height="6" fill="#1f2d29" fill-opacity="0.68" stroke="#505a56" stroke-width="1" stroke-opacity="1"/><rect id="footer-topright" x="86" y="8" width="6" height="6" fill="#1f2d29" fill-opacity="0.68" stroke="#505a56" stroke-width="1" stroke-opacity="1"/><rect id="footer-left" x="56" y="14" width="6" height="24" fill="#1f2d29" fill-opacity="0.68" stroke="#505a56" stroke-width="1" stroke-opacity="1"/><rect id="footer-center" x="62" y="14" width="24" height="24" fill="#1f2d29" fill-opacity="0.68"/><rect id="footer-right" x="86" y="14" width="6" height="24" fill="#1f2d29" fill-opacity="0.68" stroke="#505a56" stroke-width="1" stroke-opacity="1"/><rect id="footer-bottomleft" x="56" y="38" width="6" height="6" fill="#1f2d29" fill-opacity="0.68" stroke="#505a56" stroke-width="1" stroke-opacity="1"/><rect id="footer-bottom" x="62" y="38" width="24" height="6" fill="#1f2d29" fill-opacity="0.68" stroke="#505a56" stroke-width="1" stroke-opacity="1"/><rect id="footer-bottomright" x="86" y="38" width="6" height="6" fill="#1f2d29" fill-opacity="0.68" stroke="#505a56" stroke-width="1" stroke-opacity="1"/></svg>
