<?xml version="1.0" encoding="UTF-8"?>
<svg xmlns="http://www.w3.org/2000/svg" width="256" height="52" viewBox="0 0 256 52"><rect id="normal-topleft" x="8" y="8" width="6" height="6" fill="#1f2d29" fill-opacity="0.2" stroke="#3e4945" stroke-width="1" stroke-opacity="0.9"/><rect id="normal-top" x="14" y="8" width="24" height="6" fill="#1f2d29" fill-opacity="0.2" stroke="#3e4945" stroke-width="1" stroke-opacity="0.9"/><rect id="normal-topright" x="38" y="8" width="6" height="6" fill="#1f2d29" fill-opacity="0.2" stroke="#3e4945" stroke-width="1" stroke-opacity="0.9"/><rect id="normal-left" x="8" y="14" width="6" height="24" fill="#1f2d29" fill-opacity="0.2" stroke="#3e4945" stroke-width="1" stroke-opacity="0.9"/><rect id="normal-center" x="14" y="14" width="24" height="24" fill="#1f2d29" fill-opacity="0.2"/><rect id="normal-right" x="38" y="14" width="6" height="24" fill="#1f2d29" fill-opacity="0.2" stroke="#3e4945" stroke-width="1" stroke-opacity="0.9"/><rect id="normal-bottomleft" x="8" y="38" width="6" height="6" fill="#1f2d29" fill-opacity="0.2" stroke="#3e4945" stroke-width="1" stroke-opacity="0.9"/><rect id="normal-bottom" x="14" y="38" width="24" height="6" fill="#1f2d29" fill-opacity="0.2" stroke="#3e4945" stroke-width="1" stroke-opacity="0.9"/><rect id="normal-bottomright" x="38" y="38" width="6" height="6" fill="#1f2d29" fill-opacity="0.2" stroke="#3e4945" stroke-width="1" stroke-opacity="0.9"/><rect id="focus-topleft" x="56" y="8" width="6" height="6" fill="#3e4945" fill-opacity="0.72" stroke="#96bb93" stroke-width="1" stroke-opacity="0.9"/><rect id="focus-top" x="62" y="8" width="24" height="6" fill="#3e4945" fill-opacity="0.72" stroke="#96bb93" stroke-width="1" stroke-opacity="0.9"/><rect id="focus-topright" x="86" y="8" width="6" height="6" fill="#3e4945" fill-opacity="0.72" stroke="#96bb93" stroke-width="1" stroke-opacity="0.9"/><rect id="focus-left" x="56" y="14" width="6" height="24" fill="#3e4945" fill-opacity="0.72" stroke="#96bb93" stroke-width="1" stroke-opacity="0.9"/><rect id="focus-center" x="62" y="14" width="24" height="24" fill="#3e4945" fill-opacity="0.72"/><rect id="focus-right" x="86" y="14" width="6" height="24" fill="#3e4945" fill-opacity="0.72" stroke="#96bb93" stroke-width="1" stroke-opacity="0.9"/><rect id="focus-bottomleft" x="56" y="38" width="6" height="6" fill="#3e4945" fill-opacity="0.72" stroke="#96bb93" stroke-width="1" stroke-opacity="0.9"/><rect id="focus-bottom" x="62" y="38" width="24" height="6" fill="#3e4945" fill-opacity="0.72" stroke="#96bb93" stroke-width="1" stroke-opacity="0.9"/><rect id="focus-bottomright" x="86" y="38" width="6" height="6" fill="#3e4945" fill-opacity="0.72" stroke="#96bb93" stroke-width="1" stroke-opacity="0.9"/><rect id="hover-topleft" x="104" y="8" width="6" height="6" fill="#2e3a36" fill-opacity="0.72" stroke="#3e4945" stroke-width="1" stroke-opacity="0.9"/><rect id="hover-top" x="110" y="8" width="24" height="6" fill="#2e3a36" fill-opacity="0.72" stroke="#3e4945" stroke-width="1" stroke-opacity="0.9"/><rect id="hover-topright" x="134" y="8" width="6" height="6" fill="#2e3a36" fill-opacity="0.72" stroke="#3e4945" stroke-width="1" stroke-opacity="0.9"/><rect id="hover-left" x="104" y="14" width="6" height="24" fill="#2e3a36" fill-opacity="0.72" stroke="#3e4945" stroke-width="1" stroke-opacity="0.9"/><rect id="hover-center" x="110" y="14" width="24" height="24" fill="#2e3a36" fill-opacity="0.72"/><rect id="hover-right" x="134" y="14" width="6" height="24" fill="#2e3a36" fill-opacity="0.72" stroke="#3e4945" stroke-width="1" stroke-opacity="0.9"/><rect id="hover-bottomleft" x="104" y="38" width="6" height="6" fill="#2e3a36" fill-opacity="0.72" stroke="#3e4945" stroke-width="1" stroke-opacity="0.9"/><rect id="hover-bottom" x="110" y="38" width="24" height="6" fill="#2e3a36" fill-opacity="0.72" stroke="#3e4945" stroke-width="1" stroke-opacity="0.9"/><rect id="hover-bottomright" x="134" y="38" width="6" height="6" fill="#2e3a36" fill-opacity="0.72" stroke="#3e4945" stroke-width="1" stroke-opacity="0.9"/><rect id="attention-topleft" x="152" y="8" width="6" height="6" fill="#d7a176" fill-opacity="0.72" stroke="#d7be86" stroke-width="1" stroke-opacity="0.9"/><rect id="attention-top" x="158" y="8" width="24" height="6" fill="#d7a176" fill-opacity="0.72" stroke="#d7be86" stroke-width="1" stroke-opacity="0.9"/><rect id="attention-topright" x="182" y="8" width="6" height="6" fill="#d7a176" fill-opacity="0.72" stroke="#d7be86" stroke-width="1" stroke-opacity="0.9"/><rect id="attention-left" x="152" y="14" width="6" height="24" fill="#d7a176" fill-opacity="0.72" stroke="#d7be86" stroke-width="1" stroke-opacity="0.9"/><rect id="attention-center" x="158" y="14" width="24" height="24" fill="#d7a176" fill-opacity="0.72"/><rect id="attention-right" x="182" y="14" width="6" height="24" fill="#d7a176" fill-opacity="0.72" stroke="#d7be86" stroke-width="1" stroke-opacity="0.9"/><rect id="attention-bottomleft" x="152" y="38" width="6" height="6" fill="#d7a176" fill-opacity="0.72" stroke="#d7be86" stroke-width="1" stroke-opacity="0.9"/><rect id="attention-bottom" x="158" y="38" width="24" height="6" fill="#d7a176" fill-opacity="0.72" stroke="#d7be86" stroke-width="1" stroke-opacity="0.9"/><rect id="attention-bottomright" x="182" y="38" width="6" height="6" fill="#d7a176" fill-opacity="0.72" stroke="#d7be86" stroke-width="1" stroke-opacity="0.9"/><rect id="minimized-topleft" x="200" y="8" width="6" height="6" fill="#1f2d29" fill-opacity="0.2" stroke="#3e4945" stroke-width="1" stroke-opacity="0.42"/><rect id="minimized-top" x="206" y="8" width="24" height="6" fill="#1f2d29" fill-opacity="0.2" stroke="#3e4945" stroke-width="1" stroke-opacity="0.42"/><rect id="minimized-topright" x="230" y="8" width="6" height="6" fill="#1f2d29" fill-opacity="0.2" stroke="#3e4945" stroke-width="1" stroke-opacity="0.42"/><rect id="minimized-left" x="200" y="14" width="6" height="24" fill="#1f2d29" fill-opacity="0.2" stroke="#3e4945" stroke-width="1" stroke-opacity="0.42"/><rect id="minimized-center" x="206" y="14" width="24" height="24" fill="#1f2d29" fill-opacity="0.2"/><rect id="minimized-right" x="230" y="14" width="6" height="24" fill="#1f2d29" fill-opacity="0.2" stroke="#3e4945" stroke-width="1" stroke-opacity="0.42"/><rect id="minimized-bottomleft" x="200" y="38" width="6" height="6" fill="#1f2d29" fill-opacity="0.2" stroke="#3e4945" stroke-width="1" stroke-opacity="0.42"/><rect id="minimized-bottom" x="206" y="38" width="24" height="6" fill="#1f2d29" fill-opacity="0.2" stroke="#3e4945" stroke-width="1" stroke-opacity="0.42"/><rect id="minimized-bottomright" x="230" y="38" width="6" height="6" fill="#1f2d29" fill-opacity="0.2" stroke="#3e4945" stroke-width="1" stroke-opacity="0.42"/></svg>
